<svg xmlns="http://www.w3.org/2000/svg" x="0px" y="0px"
width="150" height="150"
viewBox="0 0 172 172"
style=" fill:#000000;"><g fill="none" fill-rule="nonzero" stroke="none" stroke-width="1" stroke-linecap="butt" stroke-linejoin="miter" stroke-miterlimit="10" stroke-dasharray="" stroke-dashoffset="0" font-family="none" font-weight="none" font-size="none" text-anchor="none" style="mix-blend-mode: normal"><path d="M0,172v-172h172v172z" fill="none"></path><g id="Layer_1"><path d="M157.89063,68.8l-30.23437,37.49062l-30.23437,-37.49062c-12.49688,-15.45312 -11.42187,-38.02812 2.6875,-52.00312v0c15.18438,-15.18437 39.90938,-15.18437 55.09375,0v0c14.10938,14.10938 15.31875,36.55 2.6875,52.00313z" fill="#ffffff"></path><circle cx="59" cy="69" transform="scale(1.34375,1.34375)" r="55" fill="#ffffff"></circle><path d="M10.88438,120.53438c15.72187,7.25625 22.97813,6.31563 26.47187,3.225c5.9125,-5.10625 -0.5375,-14.5125 4.97187,-29.15937c6.31563,-16.6625 19.75313,-18.00625 21.90313,-29.5625c1.34375,-7.39062 -1.88125,-18.40937 -22.17188,-34.9375l-0.80625,-0.80625c-21.5,13.03438 -35.87812,36.55 -35.87812,63.425c0,9.80938 1.88125,19.21563 5.50938,27.81562z" fill="#e4e4e7"></path><path d="M79.28125,166.625c23.51563,0 44.47812,-11.01875 58.05,-28.21875l-19.48438,-4.43437c-11.55625,-2.28438 -27.95,-7.12188 -35.07187,-5.10625c-18.8125,5.375 -20.02188,25.53125 -28.89063,33.325c7.92813,2.82187 16.52812,4.43437 25.39688,4.43437z" fill="#e4e4e7"></path><path d="M79.28125,170.65625c-43,0 -77.9375,-34.9375 -77.9375,-77.9375c0,-41.65625 32.65313,-75.92187 74.175,-77.80312c2.28438,-0.13438 4.16563,1.6125 4.16563,3.89688c0.13438,2.28437 -1.6125,4.16562 -3.89687,4.16562c-37.22188,1.74687 -66.38125,32.38438 -66.38125,69.74062c0,38.56563 31.30938,69.875 69.875,69.875c23.78437,0 45.6875,-11.95937 58.5875,-31.84688c1.20937,-1.88125 3.7625,-2.41875 5.64375,-1.20937c1.88125,1.20937 2.41875,3.7625 1.20938,5.50937c-14.5125,22.30625 -38.96875,35.60938 -65.44063,35.60938z" fill="#444b54"></path><path d="M150.5,116.50313c-0.40312,0 -0.67187,0 -1.075,-0.13437c-2.15,-0.5375 -3.35937,-2.82187 -2.82188,-4.97187c0.5375,-2.01562 1.075,-4.03125 1.34375,-6.04687c0.40312,-2.15 2.55313,-3.62813 4.70313,-3.225c2.15,0.40313 3.62813,2.55313 3.225,4.70313c-0.40313,2.28437 -0.94063,4.43438 -1.47813,6.71875c-0.5375,1.88125 -2.15,2.95625 -3.89688,2.95625z" fill="#444b54"></path><path d="M157.89063,68.8l-28.21875,32.38438c-1.075,1.20938 -2.95625,1.20938 -4.03125,0l-28.21875,-32.38438c-12.49688,-15.45312 -11.42187,-38.02813 2.6875,-52.00312v0c15.18438,-15.18438 39.90938,-15.18438 55.09375,0v0c14.10938,14.10937 15.31875,36.55 2.6875,52.00312z" fill="#3498db"></path><path d="M127.65625,105.61875c-3.62812,0 -7.12188,-1.6125 -9.40625,-4.43437l-24.05313,-29.83125c-13.84062,-17.06563 -12.49687,-41.79063 3.09063,-57.37812c16.79688,-16.79687 44.075,-16.79687 60.87188,0c15.5875,15.5875 16.93125,40.3125 2.95625,57.5125l-24.05312,29.5625c-2.28438,2.82188 -5.77812,4.56875 -9.40625,4.56875zM127.65625,9.40625c-9.00312,0 -17.87188,3.35938 -24.725,10.2125c-12.63125,12.63125 -13.70625,32.7875 -2.41875,46.7625l24.05312,29.69688c0.80625,0.94062 1.88125,1.47812 3.09063,1.47812c1.20937,0 2.41875,-0.5375 3.09063,-1.47812l24.05312,-29.69688v0c11.2875,-13.975 10.2125,-33.99687 -2.41875,-46.62812c-6.85313,-6.9875 -15.72187,-10.34687 -24.725,-10.34687z" fill="#444b54"></path><g fill="#ffffff"><circle cx="95" cy="33" transform="scale(1.34375,1.34375)" r="13"></circle></g></g></g></svg>
